<svg xmlns="http://www.w3.org/2000/svg"
     viewBox="0 0 64 64"
     width="64"
     height="64"
     role="img"
     aria-label="Brain-AI icon">
  <style>
    :root { --accent: currentColor; }
    .ink { stroke: currentColor; fill: none; stroke-linecap: round; stroke-linejoin: round; }
    .accentStroke { stroke: var(--accent, currentColor); fill: none; stroke-linecap: round; stroke-linejoin: round; }
    .node { fill: currentColor; }
    .accentNode { fill: var(--accent, currentColor); }
  </style>

  <!-- Brain-AI mark normalized to full canvas -->
  <path class="ink" stroke-width="4"
        d="M30 14
           C22 14, 16 20, 16 28
           C12 31, 12 38, 16 41
           C16 50, 24 54, 30 50" />
  <path class="ink" stroke-width="4"
        d="M34 14
           C42 14, 48 20, 48 28
           C52 31, 52 38, 48 41
           C48 50, 40 54, 34 50" />

  <path class="accentStroke" stroke-width="4" d="M26 32 H38" />

  <path class="ink" stroke-width="4" d="M22 22 L26 32 L22 42" />
  <path class="ink" stroke-width="4" d="M42 22 L38 32 L42 42" />

  <circle class="node" cx="22" cy="22" r="3.2" />
  <circle class="node" cx="22" cy="42" r="3.2" />
  <circle class="node" cx="42" cy="22" r="3.2" />
  <circle class="node" cx="42" cy="42" r="3.2" />
  <circle class="accentNode" cx="32" cy="32" r="3.6" />
</svg>
