<svg class="clean-neuron-svg" width="100%" viewBox="0 0 900 440" xmlns="http://www.w3.org/2000/svg" role="img" aria-labelledby="clean-neuron-title-_R_0_ clean-neuron-desc-_R_0_"><title id="clean-neuron-title-_R_0_">Procedural neuron diagram</title><desc id="clean-neuron-desc-_R_0_">A clean educational neuron generated from node data with D3 shape utilities.</desc><defs><linearGradient id="clean-neuron-body-gradient-_R_0_" x1="90" y1="210" x2="820" y2="210" gradientUnits="userSpaceOnUse"><stop offset="0%" stop-color="#f5f9ff"></stop><stop offset="100%" stop-color="#eef4fb"></stop></linearGradient><linearGradient id="clean-neuron-fill-gradient-_R_0_" x1="500" y1="142" x2="500" y2="286" gradientUnits="userSpaceOnUse"><stop offset="0%" stop-color="#cbe9c6"></stop><stop offset="100%" stop-color="#b6deaf"></stop></linearGradient><clipPath id="clean-neuron-soma-clip-_R_0_"><path d="M410,196C415.002,188.66,421.569,182.065,428,176C434.259,170.097,440.614,164.572,448,160C455.853,155.139,464.692,150.669,474,148C483.936,145.15,495.186,144.043,506,144C517.176,143.955,529.149,145.406,540,148C550.447,150.498,560.478,155.161,570,159C578.735,162.522,586.472,168.742,595,170C603.155,171.203,612.414,170.33,620,167C628.209,163.396,636.517,155.733,642,148C647.588,140.12,651.403,129.444,653,120C654.505,111.098,650.391,101.483,652,93C653.544,84.857,658.35,70.161,662,70C665.393,69.85,671.08,81.576,673,89C675.403,98.292,669.109,112.363,672,122C674.642,130.805,680.282,140.903,688,145C696.859,149.703,712.514,148.325,724,145C736.62,141.347,758.444,120.154,760,122C761.425,123.69,746.648,142.216,738,151C728.816,160.329,704.607,171.144,706,176C707.423,180.96,734.931,177.946,748,180C759.371,181.787,780.098,185.334,780,187C779.902,188.676,758.468,190.041,747,190C734.246,189.954,719.023,184.822,707,186C697.114,186.969,688.605,188.946,680,194C669.023,200.448,653.978,213.875,649,225C645.182,233.534,645.104,243.303,647,252C649.038,261.35,654.679,271.958,662,279C669.938,286.635,683.809,288.63,694,295C704.505,301.566,725.383,315.242,724,318C722.971,320.052,709.742,317.789,702,316C692.307,313.76,680.807,307.315,671,304C662.615,301.166,654.262,296.393,647,297C640.794,297.519,632.522,300.255,630,305C626.893,310.846,636.009,323.322,635,332C633.994,340.653,628.478,356.565,624,357C619.008,357.485,613.082,337.967,606,329C598.284,319.231,589.287,307.175,579,301C569.715,295.427,558.597,293.673,548,292C537.271,290.306,525.75,290.624,515,291C504.774,291.358,494.842,294.038,485,294C475.52,293.963,465.9,293.376,457,291C448.248,288.664,439.265,284.977,432,280C425.011,275.212,418.948,268.453,414,262C409.439,256.052,405.655,249.846,403,243C400.241,235.887,397.069,227.559,398,220C399,211.876,405.005,203.329,410,196"></path></clipPath><filter id="clean-neuron-signal-glow-_R_0_" x="-120%" y="-120%" width="340%" height="340%"><feGaussianBlur stdDeviation="6" result="blur"></feGaussianBlur><feMerge><feMergeNode in="blur"></feMergeNode><feMergeNode in="SourceGraphic"></feMergeNode></feMerge></filter><filter id="clean-neuron-fire-glow-_R_0_" x="-60%" y="-60%" width="220%" height="220%"><feGaussianBlur stdDeviation="5" result="blur"></feGaussianBlur><feMerge><feMergeNode in="blur"></feMergeNode><feMergeNode in="SourceGraphic"></feMergeNode></feMerge></filter></defs><style>
        .clean-neuron-svg {
          --neuron-stroke: #5c79a2;
          --neuron-stroke-soft: #8da3c3;
          --neuron-body: #eff5ff;
          --neuron-fill: #bfe4bb;
          --neuron-threshold: #f6a22a;
          --neuron-signal: #2789f4;
          --neuron-fire: #5da6ff;
          --neuron-label: #72839c;
        }

        .clean-neuron-svg__outline {
          fill: none;
          stroke: var(--neuron-stroke);
          stroke-linecap: round;
          stroke-linejoin: round;
          vector-effect: non-scaling-stroke;
        }

        .clean-neuron-svg__signal-dot {
          fill: var(--neuron-signal);
          filter: url(#clean-neuron-signal-glow-_R_0_);
          transform-box: fill-box;
          transform-origin: center;
        }

        .clean-neuron-svg__signal-tail {
          fill: var(--neuron-signal);
        }

        .clean-neuron-svg__soma-fill {
          transition: d 420ms ease;
        }

        .clean-neuron-svg__axon-pulse {
          opacity: 0;
          transition: opacity 220ms ease;
          animation: none;
        }

        .clean-neuron-svg__soma-flash {
          opacity: 0;
          animation: none;
        }

        .clean-neuron-svg__label {
          fill: var(--neuron-label);
          font-family: Inter, Arial, Helvetica, sans-serif;
          font-size: 13px;
        }

        @keyframes cleanNeuronAxonPulse {
          0% {
            stroke-dashoffset: 260;
            opacity: 0;
          }
          15% {
            opacity: 1;
          }
          86% {
            opacity: 1;
          }
          100% {
            stroke-dashoffset: 0;
            opacity: 0;
          }
        }

        @keyframes cleanNeuronSomaFire {
          0% {
            opacity: 0;
            transform: scale(0.985);
            transform-origin: 500px 220px;
          }
          28% {
            opacity: 0.85;
          }
          100% {
            opacity: 0;
            transform: scale(1.028);
            transform-origin: 500px 220px;
          }
        }
      </style><rect x="0" y="0" width="900" height="440" rx="28" fill="#ffffff"></rect><g id="mirror-root"><g id="level-basic-core"><g id="incoming-signals-core"><path id="signal-path-top" d="M840,122L835.833,122C831.667,122,823.333,122,815,122.5C806.667,123,798.333,124,788.833,125.167C779.333,126.333,768.667,127.667,757,129.167C745.333,130.667,732.667,132.333,719.333,134C706,135.667,692,137.333,676.667,139.167C661.333,141,644.667,143,636.333,144L628,145" fill="none" stroke="rgba(39, 137, 244, 0.12)" stroke-width="2" stroke-linecap="round" opacity="1"></path><path id="signal-path-mid" d="M840,214L835.833,215.167C831.667,216.333,823.333,218.667,815,220.667C806.667,222.667,798.333,224.333,789.167,225C780,225.667,770,225.333,759,223.5C748,221.667,736,218.333,723,213.667C710,209,696,203,681.333,196C666.667,189,651.333,181,643.667,177L636,173" fill="none" stroke="rgba(39, 137, 244, 0.12)" stroke-width="2" stroke-linecap="round" opacity="1"></path><path id="signal-path-low" d="M840,306L835.667,305.833C831.333,305.667,822.667,305.333,814,304.667C805.333,304,796.667,303,787.333,301.167C778,299.333,768,296.667,757,293.167C746,289.667,734,285.333,721,280.333C708,275.333,694,269.667,679.5,262.167C665,254.667,650,245.333,642.5,240.667L635,236" fill="none" stroke="rgba(39, 137, 244, 0.12)" stroke-width="2" stroke-linecap="round" opacity="1"></path><g id="signal-path-top-dots"><circle class="clean-neuron-svg__signal-tail" cx="815.0004012754899" cy="122" r="6.321428571428571" opacity="0.78"></circle><circle class="clean-neuron-svg__signal-tail" cx="794.4166967944294" cy="124.46999638466848" r="5.642857142857143" opacity="0.7000000000000001"></circle><circle class="clean-neuron-svg__signal-tail" cx="773.8427480610047" cy="127.01965649237441" r="4.964285714285714" opacity="0.62"></circle><circle class="clean-neuron-svg__signal-tail" cx="753.2753883791431" cy="129.62165942379696" r="4.2857142857142865" opacity="0.54"></circle><circle class="clean-neuron-svg__signal-tail" cx="732.7211780270289" cy="132.32616078591724" r="3.607142857142857" opacity="0.46"></circle><circle class="clean-neuron-svg__signal-tail" cx="712.154848402827" cy="134.93394661871108" r="2.928571428571429" opacity="0.38"></circle><circle cx="691.5688365647151" cy="137.3846623137244" r="2.25" class="clean-neuron-svg__signal-dot" opacity="1"><animateMotion begin="0s" dur="2.05s" repeatCount="indefinite" path="M840,122L835.833,122C831.667,122,823.333,122,815,122.5C806.667,123,798.333,124,788.833,125.167C779.333,126.333,768.667,127.667,757,129.167C745.333,130.667,732.667,132.333,719.333,134C706,135.667,692,137.333,676.667,139.167C661.333,141,644.667,143,636.333,144L628,145"></animateMotion><animate attributeName="opacity" values="0.15;1;1;0" keyTimes="0;0.18;0.84;1" dur="2.05s" begin="0s" repeatCount="indefinite"></animate></circle><circle cx="835.7317758275227" cy="122" r="7" fill="#2789f4" filter="url(#clean-neuron-signal-glow-_R_0_)" opacity="1"></circle></g><g id="signal-path-mid-dots"><circle class="clean-neuron-svg__signal-tail" cx="815.5873911699368" cy="220.83553047241767" r="6.321428571428571" opacity="0.78"></circle><circle class="clean-neuron-svg__signal-tail" cx="794.9831757790129" cy="225.00336484419742" r="5.642857142857143" opacity="0.7000000000000001"></circle><circle class="clean-neuron-svg__signal-tail" cx="774.067493113516" cy="225.4689164371172" r="4.964285714285714" opacity="0.62"></circle><circle class="clean-neuron-svg__signal-tail" cx="753.3055626314906" cy="223.14043406430295" r="4.2857142857142865" opacity="0.54"></circle><circle class="clean-neuron-svg__signal-tail" cx="733.0493156386402" cy="217.51369878851116" r="3.607142857142857" opacity="0.46"></circle><circle class="clean-neuron-svg__signal-tail" cx="713.3091813312199" cy="210.4182205705228" r="2.928571428571429" opacity="0.38"></circle><circle cx="693.9857950565968" cy="202.13676930997008" r="2.25" class="clean-neuron-svg__signal-dot" opacity="1"><animateMotion begin="0.18s" dur="2.2s" repeatCount="indefinite" path="M840,214L835.833,215.167C831.667,216.333,823.333,218.667,815,220.667C806.667,222.667,798.333,224.333,789.167,225C780,225.667,770,225.333,759,223.5C748,221.667,736,218.333,723,213.667C710,209,696,203,681.333,196C666.667,189,651.333,181,643.667,177L636,173"></animateMotion><animate attributeName="opacity" values="0.15;1;1;0" keyTimes="0;0.18;0.84;1" dur="2.2s" begin="0.18s" repeatCount="indefinite"></animate></circle><circle cx="835.8319936143795" cy="215.16704178797374" r="7" fill="#2789f4" filter="url(#clean-neuron-signal-glow-_R_0_)" opacity="1"></circle></g><g id="signal-path-low-dots"><circle class="clean-neuron-svg__signal-tail" cx="814.2680454606593" cy="305.0103094407946" r="6.321428571428571" opacity="0.78"></circle><circle class="clean-neuron-svg__signal-tail" cx="793.0527530908188" cy="302.5830099720176" r="5.642857142857143" opacity="0.7000000000000001"></circle><circle class="clean-neuron-svg__signal-tail" cx="772.2811023943744" cy="297.80829397183317" r="4.964285714285714" opacity="0.62"></circle><circle class="clean-neuron-svg__signal-tail" cx="751.8165014437362" cy="291.7670699657936" r="4.2857142857142865" opacity="0.54"></circle><circle class="clean-neuron-svg__signal-tail" cx="731.7314702493869" cy="284.5141420345008" r="3.607142857142857" opacity="0.46"></circle><circle class="clean-neuron-svg__signal-tail" cx="711.796225047187" cy="276.8699006143376" r="2.928571428571429" opacity="0.38"></circle><circle cx="692.0017659893994" cy="268.8578576623759" r="2.25" class="clean-neuron-svg__signal-dot" opacity="1"><animateMotion begin="0.36s" dur="2.35s" repeatCount="indefinite" path="M840,306L835.667,305.833C831.333,305.667,822.667,305.333,814,304.667C805.333,304,796.667,303,787.333,301.167C778,299.333,768,296.667,757,293.167C746,289.667,734,285.333,721,280.333C708,275.333,694,269.667,679.5,262.167C665,254.667,650,245.333,642.5,240.667L635,236"></animateMotion><animate attributeName="opacity" values="0.15;1;1;0" keyTimes="0;0.18;0.84;1" dur="2.35s" begin="0.36s" repeatCount="indefinite"></animate></circle><circle cx="835.606739468893" cy="305.83102844111124" r="7" fill="#2789f4" filter="url(#clean-neuron-signal-glow-_R_0_)" opacity="1"></circle></g></g><g id="stimulus-source" opacity="1"></g><g id="neuron-core"><g id="axon-core"><path id="axon-shaft" d="M110,221C110,221,137.414,220.177,152,220C168.577,219.798,186.235,219.851,204,220C223.165,220.16,243.47,221.007,263,221C282.131,220.993,302.028,220.99,320,220C335.424,219.15,350.696,216.825,364,216C374.122,215.372,383.536,214.656,392,215C398.515,215.265,404.541,215.458,410,217C414.741,218.34,423,223,423,223" class="clean-neuron-svg__outline" stroke-width="9.5"></path></g><g id="axon-pulse-group"><path id="axon-pulse" d="M110,221C110,221,137.414,220.177,152,220C168.577,219.798,186.235,219.851,204,220C223.165,220.16,243.47,221.007,263,221C282.131,220.993,302.028,220.99,320,220C335.424,219.15,350.696,216.825,364,216C374.122,215.372,383.536,214.656,392,215C398.515,215.265,404.541,215.458,410,217C414.741,218.34,423,223,423,223" class="clean-neuron-svg__outline clean-neuron-svg__axon-pulse" stroke="var(--neuron-fire)" stroke-width="5.2" stroke-dasharray="34 230" stroke-dashoffset="260" filter="url(#clean-neuron-fire-glow-_R_0_)"></path></g><g id="axon-terminals"><path d="M110,221C110,221,95.689,204.362,89,197C83.453,190.895,78.545,184.885,73,180C68.161,175.738,58,169,58,169" class="clean-neuron-svg__outline" stroke-width="5.2"></path><path d="M110,221C110,221,90.976,210.457,82,207C74.768,204.215,68.095,202.819,61,201C53.765,199.145,39,196,39,196" class="clean-neuron-svg__outline" stroke-width="5.2"></path><path d="M110,221C110,221,91.034,219.778,82,220C73.75,220.203,65.751,220.937,58,222C50.784,222.99,37,226,37,226" class="clean-neuron-svg__outline" stroke-width="5.2"></path><path d="M110,221C110,221,94.039,233.644,86,239C78.699,243.865,71.078,247.673,64,252C57.448,256.006,45,264,45,264" class="clean-neuron-svg__outline" stroke-width="5.2"></path><path d="M110,221C110,221,99.839,237.873,95,246C90.529,253.509,86.676,261.137,82,268C77.633,274.41,68,286,68,286" class="clean-neuron-svg__outline" stroke-width="5.2"></path><circle cx="58" cy="169" r="7" fill="#ffffff" stroke="#5c79a2" stroke-width="3.2"></circle><circle cx="39" cy="196" r="7" fill="#ffffff" stroke="#5c79a2" stroke-width="3.2"></circle><circle cx="37" cy="226" r="7" fill="#ffffff" stroke="#5c79a2" stroke-width="3.2"></circle><circle cx="45" cy="264" r="7" fill="#ffffff" stroke="#5c79a2" stroke-width="3.2"></circle><circle cx="68" cy="286" r="7" fill="#ffffff" stroke="#5c79a2" stroke-width="3.2"></circle></g><g id="dendrites-core"><path d="M596,170C596,170,612.244,158.303,618,151C623.376,144.179,627.665,136.152,630,128C632.342,119.822,632,102,632,102" class="clean-neuron-svg__outline" stroke-width="5.2"></path><path d="M600,171C600,171,619.033,170.904,628,169C636.676,167.158,644.01,163.273,653,160C664.577,155.786,691,146,691,146" class="clean-neuron-svg__outline" stroke-width="5.2"></path><path d="M704,176C704,176,718.667,163.333,726,157C733.333,150.667,740.515,143.934,748,138C755.193,132.298,770,122,770,122" class="clean-neuron-svg__outline" stroke-width="5.2"></path><path d="M705,184C705,184,720.385,181.667,728,181C735.382,180.354,742.237,179.807,750,180C759.373,180.233,780,183,780,183" class="clean-neuron-svg__outline" stroke-width="5.2"></path><path d="M676,304C676,304,693.828,307.052,702,310C709.782,312.807,717.031,316.694,724,321C731.038,325.348,744,336,744,336" class="clean-neuron-svg__outline" stroke-width="5.2"></path><path d="M629,305C629,305,638.343,314.527,642,320C645.687,325.519,648.215,331.804,651,338C653.9,344.454,659,358,659,358" class="clean-neuron-svg__outline" stroke-width="5.2"></path><path d="M606,333C606,333,609.358,344.929,611,351C612.693,357.258,614.205,363.62,616,370C617.862,376.617,622,390,622,390" class="clean-neuron-svg__outline" stroke-width="5.2"></path></g><g id="soma-core"><path id="soma-outline" d="M410,196C415.002,188.66,421.569,182.065,428,176C434.259,170.097,440.614,164.572,448,160C455.853,155.139,464.692,150.669,474,148C483.936,145.15,495.186,144.043,506,144C517.176,143.955,529.149,145.406,540,148C550.447,150.498,560.478,155.161,570,159C578.735,162.522,586.472,168.742,595,170C603.155,171.203,612.414,170.33,620,167C628.209,163.396,636.517,155.733,642,148C647.588,140.12,651.403,129.444,653,120C654.505,111.098,650.391,101.483,652,93C653.544,84.857,658.35,70.161,662,70C665.393,69.85,671.08,81.576,673,89C675.403,98.292,669.109,112.363,672,122C674.642,130.805,680.282,140.903,688,145C696.859,149.703,712.514,148.325,724,145C736.62,141.347,758.444,120.154,760,122C761.425,123.69,746.648,142.216,738,151C728.816,160.329,704.607,171.144,706,176C707.423,180.96,734.931,177.946,748,180C759.371,181.787,780.098,185.334,780,187C779.902,188.676,758.468,190.041,747,190C734.246,189.954,719.023,184.822,707,186C697.114,186.969,688.605,188.946,680,194C669.023,200.448,653.978,213.875,649,225C645.182,233.534,645.104,243.303,647,252C649.038,261.35,654.679,271.958,662,279C669.938,286.635,683.809,288.63,694,295C704.505,301.566,725.383,315.242,724,318C722.971,320.052,709.742,317.789,702,316C692.307,313.76,680.807,307.315,671,304C662.615,301.166,654.262,296.393,647,297C640.794,297.519,632.522,300.255,630,305C626.893,310.846,636.009,323.322,635,332C633.994,340.653,628.478,356.565,624,357C619.008,357.485,613.082,337.967,606,329C598.284,319.231,589.287,307.175,579,301C569.715,295.427,558.597,293.673,548,292C537.271,290.306,525.75,290.624,515,291C504.774,291.358,494.842,294.038,485,294C475.52,293.963,465.9,293.376,457,291C448.248,288.664,439.265,284.977,432,280C425.011,275.212,418.948,268.453,414,262C409.439,256.052,405.655,249.846,403,243C400.241,235.887,397.069,227.559,398,220C399,211.876,405.005,203.329,410,196" fill="url(#clean-neuron-body-gradient-_R_0_)" stroke="#5c79a2" stroke-width="4.8" stroke-linejoin="round"></path><g id="soma-fill-group" clip-path="url(#clean-neuron-soma-clip-_R_0_)"><path id="soma-fill" class="clean-neuron-svg__soma-fill" d="M584,224L583.167,227.667C582.333,231.333,580.667,238.667,578.5,245.667C576.333,252.667,573.667,259.333,570.5,265.667C567.333,272,563.667,278,561.833,281L560,284L494,284L493.167,281C492.333,278,490.667,272,489.5,265.667C488.333,259.333,487.667,252.667,487.333,245.667C487,238.667,487,231.333,487,227.667L487,224Z" fill="url(#clean-neuron-fill-gradient-_R_0_)" opacity="0.95"></path></g><path id="threshold-curve" d="M476,162L477.833,165.5C479.667,169,483.333,176,486,183.333C488.667,190.667,490.333,198.333,491.167,206.167C492,214,492,222,491.167,229.667C490.333,237.333,488.667,244.667,486.5,251.333C484.333,258,481.667,264,480.333,267L479,270" fill="none" stroke="var(--neuron-threshold)" stroke-width="4.2" stroke-linecap="round" opacity="1"></path><circle id="soma-nucleus" cx="504" cy="222" r="5.5" fill="#ffffff" opacity="0.72"></circle><path d="M410,196C415.002,188.66,421.569,182.065,428,176C434.259,170.097,440.614,164.572,448,160C455.853,155.139,464.692,150.669,474,148C483.936,145.15,495.186,144.043,506,144C517.176,143.955,529.149,145.406,540,148C550.447,150.498,560.478,155.161,570,159C578.735,162.522,586.472,168.742,595,170C603.155,171.203,612.414,170.33,620,167C628.209,163.396,636.517,155.733,642,148C647.588,140.12,651.403,129.444,653,120C654.505,111.098,650.391,101.483,652,93C653.544,84.857,658.35,70.161,662,70C665.393,69.85,671.08,81.576,673,89C675.403,98.292,669.109,112.363,672,122C674.642,130.805,680.282,140.903,688,145C696.859,149.703,712.514,148.325,724,145C736.62,141.347,758.444,120.154,760,122C761.425,123.69,746.648,142.216,738,151C728.816,160.329,704.607,171.144,706,176C707.423,180.96,734.931,177.946,748,180C759.371,181.787,780.098,185.334,780,187C779.902,188.676,758.468,190.041,747,190C734.246,189.954,719.023,184.822,707,186C697.114,186.969,688.605,188.946,680,194C669.023,200.448,653.978,213.875,649,225C645.182,233.534,645.104,243.303,647,252C649.038,261.35,654.679,271.958,662,279C669.938,286.635,683.809,288.63,694,295C704.505,301.566,725.383,315.242,724,318C722.971,320.052,709.742,317.789,702,316C692.307,313.76,680.807,307.315,671,304C662.615,301.166,654.262,296.393,647,297C640.794,297.519,632.522,300.255,630,305C626.893,310.846,636.009,323.322,635,332C633.994,340.653,628.478,356.565,624,357C619.008,357.485,613.082,337.967,606,329C598.284,319.231,589.287,307.175,579,301C569.715,295.427,558.597,293.673,548,292C537.271,290.306,525.75,290.624,515,291C504.774,291.358,494.842,294.038,485,294C475.52,293.963,465.9,293.376,457,291C448.248,288.664,439.265,284.977,432,280C425.011,275.212,418.948,268.453,414,262C409.439,256.052,405.655,249.846,403,243C400.241,235.887,397.069,227.559,398,220C399,211.876,405.005,203.329,410,196" class="clean-neuron-svg__soma-flash" fill="none" stroke="rgba(93, 166, 255, 0.9)" stroke-width="6" filter="url(#clean-neuron-fire-glow-_R_0_)"></path></g></g></g><g id="level-structure" opacity="1"><g id="dendrites-secondary"><path d="M632,102C632,102,623.435,86.843,619,80C615.079,73.95,610.4,68.851,607,63C603.802,57.497,599,46,599,46" class="clean-neuron-svg__outline" stroke-width="4.2"></path><path d="M632,102C632,102,631.707,85.61,633,78C634.189,71.004,636.569,64.829,639,58C641.773,50.211,649,34,649,34" class="clean-neuron-svg__outline" stroke-width="4.2"></path><path d="M691,146C691,146,703.919,136.405,710,131C716.268,125.43,722.088,118.722,728,113C733.407,107.767,744,98,744,98" class="clean-neuron-svg__outline" stroke-width="4.2"></path><path d="M691,146C691,146,707.289,144.315,715,144C721.898,143.718,728.467,143.153,735,144C741.464,144.838,754,149,754,149" class="clean-neuron-svg__outline" stroke-width="4.2"></path><path d="M744,336C744,336,760.148,337.197,768,337C775.467,336.813,782.761,336.459,790,335C797.433,333.502,812,328,812,328" class="clean-neuron-svg__outline" stroke-width="4.2"></path><path d="M744,336C744,336,755.295,344.618,759,350C762.469,355.039,764.326,361.222,766,367C767.612,372.564,769,384,769,384" class="clean-neuron-svg__outline" stroke-width="4.2"></path><path d="M659,358C659,358,668.803,366.317,674,370C679.141,373.644,684.576,376.71,690,380C695.571,383.379,707,390,707,390" class="clean-neuron-svg__outline" stroke-width="4.2"></path><path d="M622,390C622,390,620.667,398.667,620,403C619.333,407.333,619.02,411.787,618,416C617.004,420.115,614,428,614,428" class="clean-neuron-svg__outline" stroke-width="4.2"></path></g><g id="structure-labels"><text class="clean-neuron-svg__label" x="92" y="144">axon</text><text class="clean-neuron-svg__label" x="468" y="120">soma</text><text class="clean-neuron-svg__label" x="704" y="92">dendrites</text></g></g><g id="level-advanced-mechanism" opacity="1"><g id="excitatory-inputs-group"><circle cx="700" cy="147" r="4.1" fill="#2789f4"></circle><circle cx="688" cy="186" r="4.1" fill="#2789f4"></circle><circle cx="687" cy="247" r="4.1" fill="#2789f4"></circle></g><g id="inhibitory-inputs-group"><circle cx="720" cy="176" r="4.1" fill="#9d8cff"></circle><circle cx="708" cy="296" r="4.1" fill="#9d8cff"></circle></g><g id="axon-myelin-group" opacity="0"></g><g id="nodes-of-ranvier-group" opacity="0"></g><g id="synapse-hint-group" opacity="0"></g><g id="advanced-labels"><text class="clean-neuron-svg__label" x="516" y="146">threshold</text></g></g></g></svg>