
<svg class="animated" id="freepik_stories-pay-attention" xmlns="http://www.w3.org/2000/svg" viewBox="0 0 500 500" version="1.1" xmlns:xlink="http://www.w3.org/1999/xlink" xmlns:svgjs="http://svgjs.com/svgjs"><g id="freepik--background-simple--inject-2" class="animable" style="transform-origin: 243.406px 248.056px;"><path d="M401.08,305.41c-4.84,42.73-39.68,64.22-74.95,56.15-16.91-3.86-31.05-26.08-46.45-33.38-20.1-9.53-41.47-6.27-62.79-9.28-53-7.48-45.23-28.07-71.21-61.51C127.41,233.87,86.89,228.3,85,192.88c-2.37-43.28,50.63-53.82,83.81-41.12,38.11,14.58,66.15-32.28,126.08-15C353.8,153.74,409.28,241.23,401.08,305.41Z" style="fill: rgb(64, 123, 255); transform-origin: 243.406px 248.056px;" id="ele55jdpdqbdk" class="animable"></path><g id="ele2bql7l56xh"><path d="M401.08,305.41c-4.84,42.73-39.68,64.22-74.95,56.15-16.91-3.86-31.05-26.08-46.45-33.38-20.1-9.53-41.47-6.27-62.79-9.28-53-7.48-45.23-28.07-71.21-61.51C127.41,233.87,86.89,228.3,85,192.88c-2.37-43.28,50.63-53.82,83.81-41.12,38.11,14.58,66.15-32.28,126.08-15C353.8,153.74,409.28,241.23,401.08,305.41Z" style="fill: rgb(255, 255, 255); opacity: 0.9; transform-origin: 243.406px 248.056px;" class="animable"></path></g></g><g id="freepik--Shadow--inject-2" class="animable" style="transform-origin: 250px 416.24px;"><ellipse id="freepik--path--inject-2" cx="250" cy="416.24" rx="193.89" ry="11.32" style="fill: rgb(245, 245, 245); transform-origin: 250px 416.24px;" class="animable"></ellipse></g><g id="freepik--Character--inject-2" class="animable animator-active" style="transform-origin: 256.499px 253.718px;"><path d="M209.49,118.41c-6.62-4,1.23-8-.75-12.21-4.09-8.78,3.13-15.69,15.4-11,12.49,4.73,10.34,8.07,17.29,6.61s6.16,3.7,5.26,5.27c9.08.56,15.44,9.93,2.83,26.45-10.36,13.57-7.42,20.14-7.42,20.14L215,120.82s-.76-8.39-2.12-12.65C212.88,113.33,206.48,114.05,209.49,118.41Z" style="fill: rgb(38, 50, 56); transform-origin: 231.684px 123.678px;" id="elkt6pz0lxnt" class="animable"></path><path d="M246.56,99c3.93,2.56,2.31,6.51-3.87,9.39l2.83,2C251.8,107.82,252.4,100.69,246.56,99Z" style="fill: rgb(38, 50, 56); transform-origin: 246.648px 104.695px;" id="elwprkbem0sjo" class="animable"></path><path d="M251,131.48c-4.66,7.2-9.28,16.53-4.24,15.15-2.94,6.3-9.41,5.21-10.59-.51S251,131.48,251,131.48Z" style="fill: rgb(38, 50, 56); transform-origin: 243.554px 141.191px;" id="el2e6j84n2q28" class="animable"></path><path d="M223,232.74s-70.5,28.32-70.27,63.49c.85,39.54,1,106.56,1,106.56h10s19.92-57.4,16.7-102.17c47.92-19.7,69.08-28.09,69.08-28.09l3-36.76Z" style="fill: rgb(64, 123, 255); transform-origin: 202.62px 317.765px;" id="el25ekl5ufaw7" class="animable"></path><g id="elbqn2x4sw3k6"><path d="M232.94,279.17c11.27-4.55,16.54-6.64,16.54-6.64l1.45-17.83C239.29,260.78,232.07,269,232.94,279.17Z" style="opacity: 0.2; transform-origin: 241.9px 266.935px;" class="animable"></path></g><path d="M230.55,235.77s19.36,60.75,39,93.86c15.75,26.5,92,70.65,94.31,72.38l5.71-6.48s-33.41-48.35-69.42-74.14a591.82,591.82,0,0,0-27.38-87.49Z" style="fill: rgb(64, 123, 255); transform-origin: 300.06px 317.955px;" id="elbsm829llm7" class="animable"></path><g id="el849z67jxln5"><path d="M365.38,393.3a.25.25,0,0,1-.19-.09c-52.16-58.53-70.79-71.59-71-71.71a.23.23,0,0,1-.1-.17c-.05-.34-4.85-33.59-27-77.84a.25.25,0,0,1,0-.25.27.27,0,0,1,.21-.12c6.28-.05,7.52-3.44,7.53-3.47a.27.27,0,0,1,.32-.16.25.25,0,0,1,.16.32c-.05.15-1.29,3.61-7.6,3.81,21.37,42.88,26.49,75.4,26.81,77.53,1.47,1.05,20.64,15.24,71,71.73a.25.25,0,0,1,0,.35A.23.23,0,0,1,365.38,393.3Z" style="fill: rgb(255, 255, 255); opacity: 0.4; transform-origin: 316.324px 316.39px;" class="animable"></path></g><path d="M380.46,407.43c-4.65-4.37-9.11-11.52-14.48-20.16a2.35,2.35,0,0,0-3.44-.62c-3.83,3-11.4,9.31-9.14,11.52,5.43,5.28,8.74,8.81-.1,10-5.05.68-1.77,5.57,2,5.57,9.37,0,8.7-.15,14-.33,4.51-.15,5.59.41,9.22.33C381.5,413.68,383,409.8,380.46,407.43Z" style="fill: rgb(38, 50, 56); transform-origin: 366.235px 399.952px;" id="el277l1qpvgnh" class="animable"></path><path d="M168.44,406.56c-.78-3-1.86-2-.24-11.22a3.52,3.52,0,0,0-3.06-4.11c-5.16-.59-13.81-1.14-13.56,1.82.63,7.65-6.36,14.66-17.62,15.47-5,.36-2.24,5.23,1.45,5.22,9.22,0,15.76-.5,21-.39,4.44.09,6.09.47,9.67.39C169,413.67,169.32,410,168.44,406.56Z" style="fill: rgb(38, 50, 56); transform-origin: 150.058px 402.257px;" id="elkit5lbtnldk" class="animable"></path><path d="M215,135.69l-1.81,2.58s-3.91,7.16-9.38,9.74l-1.22-1.16a9,9,0,0,1-2.76-7.3l2.29-7,3.95-4.22a3.07,3.07,0,0,1,4.19-.26l4.18,3.46A3.05,3.05,0,0,1,215,135.69Z" style="fill: rgb(255, 181, 115); transform-origin: 207.686px 137.688px;" id="el0p02g7eblt6s" class="animable"></path><path d="M228.68,178.69l-1.51.55-1.38.47c-.92.31-1.84.58-2.75.85-1.84.54-3.69,1-5.56,1.4a77.28,77.28,0,0,1-11.54,1.64,52.85,52.85,0,0,1-12.34-.54,32.8,32.8,0,0,1-12.94-4.91l-.45-.3a7.56,7.56,0,0,1-3.29-7.62,24.12,24.12,0,0,1,1.87-5.92,40.67,40.67,0,0,1,2.52-4.65,63,63,0,0,1,5.78-7.67q3.09-3.48,6.41-6.55a80.09,80.09,0,0,1,7-5.83,4.49,4.49,0,0,1,6.43,6l-.11.18c-1.48,2.29-3.08,4.67-4.56,7s-2.94,4.69-4.26,7a68,68,0,0,0-3.51,6.89,25.73,25.73,0,0,0-1.14,3.18,9.33,9.33,0,0,0-.42,2.4l-3.73-7.92a19.27,19.27,0,0,0,6.72,1.69,31.22,31.22,0,0,0,4.13.09c1.43,0,2.9-.12,4.39-.3a80.67,80.67,0,0,0,9.09-1.6c1.54-.34,3.06-.74,4.58-1.15l2.26-.65,1.1-.32,1-.31.46-.14a9,9,0,0,1,5.77,16.94Z" style="fill: rgb(255, 181, 115); transform-origin: 205.353px 161.263px;" id="elqprmdrkxosc" class="animable"></path><path d="M225.57,160.61a189,189,0,0,0-22.65,4.66c3.63,10.38-.73,22.79,11.13,25.79S237.05,159.28,225.57,160.61Z" style="fill: rgb(38, 50, 56); transform-origin: 216.653px 175.908px;" id="eltrl3joxmeis" class="animable"></path><path d="M209.38,179.88c-.3,5-8,17.63,2.2,23.55,1.14,9.61,5.53,28.15,11.53,32.34,6.26,5,24.65,3.16,48.43.26a2.14,2.14,0,0,0,1.86-2.48c-2.28-13.76-7.06-29.93-3-60.77A12.79,12.79,0,0,0,258,158.32c-2,0-4.17-.06-6.37,0-8.52.22-15.51.48-22.92,1.72-2.46.41-5,.91-7.42,1.44C212.61,163.38,210.07,168.3,209.38,179.88Z" style="fill: rgb(38, 50, 56); transform-origin: 239.871px 198.592px;" id="el3xyi425x6n1" class="animable"></path><path d="M227.27,174.14c1.32,3.33,1.28,7-1.29,7.69S225,176.54,227.27,174.14Z" style="fill: rgb(255, 181, 115); transform-origin: 226.393px 178.013px;" id="elmnxmgd5e29" class="animable"></path><g id="elk2mla02x85d"><path d="M269.76,178.35l-10.93-8.06c-.11,7.63,4.58,20.83,10.07,30.31A161.52,161.52,0,0,1,269.76,178.35Z" style="opacity: 0.2; transform-origin: 264.294px 185.445px;" class="animable"></path></g><path d="M240.2,135.14c0,7.54,5.94,18.64,11.47,23.18a42.24,42.24,0,0,0-24.15,13.81c-3.27-7.69,1.23-12.09,1.23-12.09,4-2.88,2.33-5-.16-10.42Z" style="fill: rgb(255, 181, 115); transform-origin: 238.999px 153.635px;" id="elld4k35dsa4e" class="animable"></path><g id="elxglq6a2dlcg"><path d="M234.82,141.85l-6.24,7.77c.62,1.31,1.17,2.45,1.62,3.43,3.08-.47,5.86-4.56,6.72-7.34C237.52,143.78,236.92,142.47,234.82,141.85Z" style="opacity: 0.2; transform-origin: 232.86px 147.45px;" class="animable"></path></g><path d="M214.69,128.94a7.38,7.38,0,0,1-.74,6.15c-1.5,2.17-4.4.64-5.78-2.16-1.25-2.52-2-6.68.39-7.8S213.88,126.14,214.69,128.94Z" style="fill: rgb(255, 181, 115); transform-origin: 211.023px 130.471px;" id="elw0mijj7zho" class="animable"></path><g id="elljiqkex7c8"><path d="M214.69,128.94a7.38,7.38,0,0,1-.74,6.15c-1.5,2.17-4.4.64-5.78-2.16-1.25-2.52-2-6.68.39-7.8S213.88,126.14,214.69,128.94Z" style="opacity: 0.2; transform-origin: 211.023px 130.471px;" class="animable"></path></g><path d="M244.14,120c.61,12.35,1.13,17.57-4.26,24.54-8.1,10.49-23.12,8.49-27.35-3.45-3.8-10.75-4.16-29.15,7.09-35.33C230.7,99.63,243.52,107.6,244.14,120Z" style="fill: rgb(255, 181, 115); transform-origin: 227.322px 127.499px;" id="el4f8tqzm8b1y" class="animable"></path><path d="M249.52,121.24c-5,11.57-9.84,9.56-12.38,4.91-2.88-5.29-2.38-11,1.86-14-10.42-3-22.39,7.4-26.37-1.6-4.5-10.14,17.44-11.14,24.51-7.65C248.88,108.72,252.41,117.55,249.52,121.24Z" style="fill: rgb(38, 50, 56); transform-origin: 231.252px 115.453px;" id="el84oebo3vt26" class="animable"></path><path d="M225.32,124.13c.11,1-.33,1.87-1,1.94s-1.27-.68-1.38-1.68.33-1.87,1-1.94S225.21,123.13,225.32,124.13Z" style="fill: rgb(38, 50, 56); transform-origin: 224.13px 124.26px;" id="el0hcp5cmaqmdu" class="animable"></path><path d="M220.67,138.75a1.19,1.19,0,1,1-2.36.26,1.19,1.19,0,1,1,2.36-.26Z" style="fill: rgb(38, 50, 56); transform-origin: 219.49px 138.88px;" id="elgtew7pzwzar" class="animable"></path><path d="M213.05,125.66c.11,1-.33,1.87-1,1.94s-1.27-.68-1.38-1.68.33-1.87,1-1.94S212.94,124.66,213.05,125.66Z" style="fill: rgb(38, 50, 56); transform-origin: 211.86px 125.79px;" id="el80zduzcyhev" class="animable"></path><path d="M212,124l-2.47-.43S210.92,125.31,212,124Z" style="fill: rgb(38, 50, 56); transform-origin: 210.765px 124.029px;" id="elbypq67qeto5" class="animable"></path><path d="M217.18,127.31s-1.22,4.49-2.86,6.77c1.46,1.08,3.64.27,3.64.27Z" style="fill: rgb(237, 137, 62); transform-origin: 216.14px 130.976px;" id="el8bepojf954v" class="animable"></path><path d="M248.87,130.08a8.31,8.31,0,0,1-4.89,4.77c-2.84.93-4.4-2.16-3.73-5.39.61-2.91,2.81-6.89,5.71-6.39S250.07,127.2,248.87,130.08Z" style="fill: rgb(255, 181, 115); transform-origin: 244.713px 129.023px;" id="el3fci50l3h83" class="animable"></path><path d="M227.86,118.79a.54.54,0,0,1-.39-.25,4.71,4.71,0,0,0-3.65-2.21.61.61,0,0,1-.6-.59.58.58,0,0,1,.59-.59,5.85,5.85,0,0,1,4.64,2.74.59.59,0,0,1-.17.82A.57.57,0,0,1,227.86,118.79Z" style="fill: rgb(38, 50, 56); transform-origin: 225.884px 116.975px;" id="ely3e8tt3a21" class="animable"></path><path d="M209.35,120.86a.53.53,0,0,1-.41-.15.58.58,0,0,1-.05-.83,5.86,5.86,0,0,1,5-2,.59.59,0,0,1-.18,1.17,4.66,4.66,0,0,0-3.94,1.64A.59.59,0,0,1,209.35,120.86Z" style="fill: rgb(38, 50, 56); transform-origin: 211.565px 119.357px;" id="el8uzjldyldrg" class="animable"></path><path d="M224.24,122.47l-2.48-.43S223.2,123.78,224.24,122.47Z" style="fill: rgb(38, 50, 56); transform-origin: 223px 122.499px;" id="el6ntfobt3eoi" class="animable"></path><path d="M300.45,233.31l1.83,12.47,10.59-5.12s-1.38-10.07-7.59-10.93Z" style="fill: rgb(255, 181, 115); transform-origin: 306.66px 237.755px;" id="el6t7sl8r1yqx" class="animable"></path><path d="M310.38,249.53l1.94-1.23a4.58,4.58,0,0,0,1.39-6.34l-.84-1.3-10.59,5.12,2,2.64A4.58,4.58,0,0,0,310.38,249.53Z" style="fill: rgb(255, 181, 115); transform-origin: 308.359px 245.449px;" id="el2vs2ih16us4" class="animable"></path><path d="M268.43,163.36c4.93,4.48,9.58,9.14,14.17,14q3.45,3.6,6.79,7.39c2.25,2.53,4.41,5.09,6.66,8.06l.24.31.33.47c.22.31.45.64.59.88l.47.8.39.72c.5,1,.9,1.82,1.27,2.68.73,1.72,1.34,3.37,1.92,5,1.18,3.26,2.11,6.5,3,9.72a189.22,189.22,0,0,1,4.38,19.56,4.48,4.48,0,0,1-8.41,2.79l0,0c-3-5.82-5.78-11.76-8.59-17.56-1.37-2.92-2.82-5.79-4.21-8.56-.71-1.38-1.43-2.73-2.15-3.95a11.66,11.66,0,0,0-1.77-2.54c-1.94-2.07-4.25-4.31-6.52-6.52l-7-6.67c-4.67-4.45-9.41-8.95-14-13.52l0,0a9,9,0,0,1,12.38-12.94Z" style="fill: rgb(255, 181, 115); transform-origin: 281.271px 199.885px;" id="el6eafl1zthl" class="animable"></path><path d="M256.69,158.28c10.54.19,16.77,5,24.18,15.42-13.28.07-13.36,20.28-28.1,10.18C242.68,177,245.13,158.06,256.69,158.28Z" style="fill: rgb(38, 50, 56); transform-origin: 263.653px 172.492px;" id="elkf72qle2cxe" class="animable"></path></g><defs>     <filter id="active" height="200%">         <feMorphology in="SourceAlpha" result="DILATED" operator="dilate" radius="2"></feMorphology>                <feFlood flood-color="#32DFEC" flood-opacity="1" result="PINK"></feFlood>        <feComposite in="PINK" in2="DILATED" operator="in" result="OUTLINE"></feComposite>        <feMerge>            <feMergeNode in="OUTLINE"></feMergeNode>            <feMergeNode in="SourceGraphic"></feMergeNode>        </feMerge>    </filter>    <filter id="hover" height="200%">        <feMorphology in="SourceAlpha" result="DILATED" operator="dilate" radius="2"></feMorphology>                <feFlood flood-color="#ff0000" flood-opacity="0.5" result="PINK"></feFlood>        <feComposite in="PINK" in2="DILATED" operator="in" result="OUTLINE"></feComposite>        <feMerge>            <feMergeNode in="OUTLINE"></feMergeNode>            <feMergeNode in="SourceGraphic"></feMergeNode>        </feMerge>            <feColorMatrix type="matrix" values="0   0   0   0   0                0   1   0   0   0                0   0   0   0   0                0   0   0   1   0 "></feColorMatrix>    </filter></defs></svg>